<?xml version="1.0" standalone="no"?>
<!DOCTYPE svg PUBLIC "-//W3C//DTD SVG 20010904//EN"
 "http://www.w3.org/TR/2001/REC-SVG-20010904/DTD/svg10.dtd">
<svg version="1.0" xmlns="http://www.w3.org/2000/svg"
 width="48.000000pt" height="48.000000pt" viewBox="0 0 48.000000 48.000000"
 preserveAspectRatio="xMidYMid meet">

<g transform="translate(0.000000,48.000000) scale(0.100000,-0.100000)"
fill="#000000" stroke="none">
<path d="M155 406 c-50 -23 -95 -85 -95 -132 0 -24 54 -17 80 11 l23 25 16
-22 c15 -22 15 -21 37 27 l21 50 27 -53 c14 -28 33 -52 41 -52 8 0 15 -9 15
-20 0 -28 -43 -27 -63 3 -15 22 -15 22 -34 -22 l-19 -44 -23 37 c-21 34 -25
36 -40 22 -10 -9 -30 -16 -44 -16 -35 0 -35 -19 0 -61 48 -57 120 -73 190 -44
l37 16 43 -43 c36 -35 45 -40 53 -28 7 11 -1 26 -32 57 l-41 42 18 37 c32 68
9 148 -57 197 -34 25 -113 32 -153 13z"/>
</g>
</svg>
