<svg version="1.1" id="Layer_1" xmlns="http://www.w3.org/2000/svg" xmlns:xlink="http://www.w3.org/1999/xlink" x="0px" y="0px"
	 width="100%" viewBox="0 0 300 300" enable-background="new 0 0 300 300" xml:space="preserve">
<path fill="#E94B5E" opacity="1.000000" stroke="none" 
	d="
M135.000000,301.000000 
	C90.000000,301.000000 45.500000,301.000000 1.000000,301.000000 
	C1.000000,201.000000 1.000000,101.000000 1.000000,1.000000 
	C101.000000,1.000000 201.000000,1.000000 301.000000,1.000000 
	C301.000000,101.000000 301.000000,201.000000 301.000000,301.000000 
	C245.833328,301.000000 190.666672,301.000000 135.000000,301.000000 
M44.978218,181.525787 
	C65.399940,201.597885 97.814079,192.853775 107.512047,179.526062 
	C105.601845,177.043167 103.633232,174.484360 101.656631,171.915161 
	C82.108864,188.148544 63.285572,183.275604 53.811138,173.586349 
	C42.531967,162.051437 40.954823,141.792862 50.641727,128.957321 
	C55.242229,122.861458 61.393181,119.138603 68.908813,117.665146 
	C80.464783,115.399597 90.467056,119.146271 99.878044,126.049545 
	C101.862915,123.030159 103.651146,120.309891 105.369675,117.695656 
	C96.127022,107.953583 78.378159,103.818314 63.582970,107.658081 
	C31.590357,115.961060 21.240128,155.700745 44.978218,181.525787 
M230.355362,108.741684 
	C221.714386,112.770607 216.194138,119.024246 215.769562,128.994263 
	C215.342972,139.012207 220.921844,145.121719 229.127762,149.400482 
	C233.691345,151.780075 238.533310,153.629944 243.071945,156.051849 
	C246.559280,157.912796 250.193359,159.849350 253.012451,162.538284 
	C258.716309,167.978806 257.138245,177.207245 249.946259,180.422760 
	C246.900375,181.784576 242.942535,182.793335 239.862823,182.047684 
	C233.094345,180.408905 226.621155,177.550552 219.343002,174.945038 
	C218.081604,176.636902 216.018311,179.404343 213.992706,182.121201 
	C222.213516,191.422516 237.643326,195.630310 250.423462,192.151382 
	C259.928711,189.563934 266.211334,183.657791 267.961731,173.798325 
	C269.734497,163.812744 265.753174,155.777069 256.540009,150.314575 
	C252.980743,148.204315 249.076218,146.679810 245.346375,144.852966 
	C241.171829,142.808319 236.753693,141.120529 232.909653,138.571548 
	C225.439682,133.618225 225.750687,124.034264 233.723114,119.913658 
	C237.187347,118.123123 241.821167,117.141808 245.601578,117.760773 
	C251.128662,118.665726 256.365692,121.342171 261.991302,123.358551 
	C262.465851,122.527527 263.222992,121.246941 263.937286,119.942871 
	C267.143341,114.089409 267.126556,113.825325 260.981842,110.673103 
	C251.348251,105.731094 241.362991,104.735687 230.355362,108.741684 
M162.427292,110.866081 
	C147.178497,121.919739 148.014648,139.704636 164.349838,148.933243 
	C168.969604,151.543198 174.005783,153.406357 178.705811,155.887070 
	C182.206497,157.734802 185.891174,159.572052 188.758163,162.212738 
	C194.938629,167.905365 193.248856,177.453308 185.522202,180.677292 
	C182.577988,181.905792 178.805664,182.804977 175.867294,182.058105 
	C169.112823,180.341263 162.638611,177.521835 155.402679,174.916611 
	C154.095215,176.680511 152.038849,179.454773 150.018036,182.181046 
	C158.528534,191.414352 173.528900,195.560898 186.062988,192.270721 
	C195.775986,189.721085 202.259659,183.849930 204.016129,173.732315 
	C205.780319,163.570206 201.676163,155.546555 192.110291,150.028061 
	C188.666199,148.041183 184.914536,146.593353 181.340424,144.824387 
	C177.027557,142.689774 172.453156,140.910721 168.530685,138.198608 
	C161.784683,133.534241 161.909897,124.436607 169.005615,120.391914 
	C172.521149,118.388000 177.326584,117.166084 181.250992,117.715393 
	C186.823013,118.495308 192.120712,121.235039 198.006027,123.302597 
	C198.378326,122.671616 199.240311,121.294594 200.020950,119.872894 
	C203.177444,114.124527 203.207184,113.851105 197.412735,110.887497 
	C186.065277,105.083771 174.569443,104.227737 162.427292,110.866081 
M122.259209,182.436874 
	C122.259209,185.531143 122.259209,188.625427 122.259209,191.684998 
	C126.597290,191.684998 130.175842,191.684998 133.886169,191.684998 
	C133.886169,163.654099 133.886169,135.952652 133.886169,108.245422 
	C129.944061,108.245422 126.238785,108.245422 122.259239,108.245422 
	C122.259239,132.935684 122.259239,157.195572 122.259209,182.436874 
z"/>
<path fill="#FEFBFB" opacity="1.000000" stroke="none" 
	d="
M44.726738,181.273956 
	C21.240128,155.700745 31.590357,115.961060 63.582970,107.658081 
	C78.378159,103.818314 96.127022,107.953583 105.369675,117.695656 
	C103.651146,120.309891 101.862915,123.030159 99.878044,126.049545 
	C90.467056,119.146271 80.464783,115.399597 68.908813,117.665146 
	C61.393181,119.138603 55.242229,122.861458 50.641727,128.957321 
	C40.954823,141.792862 42.531967,162.051437 53.811138,173.586349 
	C63.285572,183.275604 82.108864,188.148544 101.656631,171.915161 
	C103.633232,174.484360 105.601845,177.043167 107.512047,179.526062 
	C97.814079,192.853775 65.399940,201.597885 44.726738,181.273956 
z"/>
<path fill="#FEFBFB" opacity="1.000000" stroke="none" 
	d="
M230.703552,108.576744 
	C241.362991,104.735687 251.348251,105.731094 260.981842,110.673103 
	C267.126556,113.825325 267.143341,114.089409 263.937286,119.942871 
	C263.222992,121.246941 262.465851,122.527527 261.991302,123.358551 
	C256.365692,121.342171 251.128662,118.665726 245.601578,117.760773 
	C241.821167,117.141808 237.187347,118.123123 233.723114,119.913658 
	C225.750687,124.034264 225.439682,133.618225 232.909653,138.571548 
	C236.753693,141.120529 241.171829,142.808319 245.346375,144.852966 
	C249.076218,146.679810 252.980743,148.204315 256.540009,150.314575 
	C265.753174,155.777069 269.734497,163.812744 267.961731,173.798325 
	C266.211334,183.657791 259.928711,189.563934 250.423462,192.151382 
	C237.643326,195.630310 222.213516,191.422516 213.992706,182.121201 
	C216.018311,179.404343 218.081604,176.636902 219.343002,174.945038 
	C226.621155,177.550552 233.094345,180.408905 239.862823,182.047684 
	C242.942535,182.793335 246.900375,181.784576 249.946259,180.422760 
	C257.138245,177.207245 258.716309,167.978806 253.012451,162.538284 
	C250.193359,159.849350 246.559280,157.912796 243.071945,156.051849 
	C238.533310,153.629944 233.691345,151.780075 229.127762,149.400482 
	C220.921844,145.121719 215.342972,139.012207 215.769562,128.994263 
	C216.194138,119.024246 221.714386,112.770607 230.703552,108.576744 
z"/>
<path fill="#FEFBFB" opacity="1.000000" stroke="none" 
	d="
M162.727020,110.657227 
	C174.569443,104.227737 186.065277,105.083771 197.412735,110.887497 
	C203.207184,113.851105 203.177444,114.124527 200.020950,119.872894 
	C199.240311,121.294594 198.378326,122.671616 198.006027,123.302597 
	C192.120712,121.235039 186.823013,118.495308 181.250992,117.715393 
	C177.326584,117.166084 172.521149,118.388000 169.005615,120.391914 
	C161.909897,124.436607 161.784683,133.534241 168.530685,138.198608 
	C172.453156,140.910721 177.027557,142.689774 181.340424,144.824387 
	C184.914536,146.593353 188.666199,148.041183 192.110291,150.028061 
	C201.676163,155.546555 205.780319,163.570206 204.016129,173.732315 
	C202.259659,183.849930 195.775986,189.721085 186.062988,192.270721 
	C173.528900,195.560898 158.528534,191.414352 150.018036,182.181046 
	C152.038849,179.454773 154.095215,176.680511 155.402679,174.916611 
	C162.638611,177.521835 169.112823,180.341263 175.867294,182.058105 
	C178.805664,182.804977 182.577988,181.905792 185.522202,180.677292 
	C193.248856,177.453308 194.938629,167.905365 188.758163,162.212738 
	C185.891174,159.572052 182.206497,157.734802 178.705811,155.887070 
	C174.005783,153.406357 168.969604,151.543198 164.349838,148.933243 
	C148.014648,139.704636 147.178497,121.919739 162.727020,110.657227 
z"/>
<path fill="#FEFAFA" opacity="1.000000" stroke="none" 
	d="
M122.259224,181.946167 
	C122.259239,157.195572 122.259239,132.935684 122.259239,108.245422 
	C126.238785,108.245422 129.944061,108.245422 133.886169,108.245422 
	C133.886169,135.952652 133.886169,163.654099 133.886169,191.684998 
	C130.175842,191.684998 126.597290,191.684998 122.259209,191.684998 
	C122.259209,188.625427 122.259209,185.531143 122.259224,181.946167 
z"/>
</svg>