<?xml version="1.0" encoding="UTF-8"?>
<svg version="1.1" xmlns="http://www.w3.org/2000/svg" width="512" height="512">
<path d="M0 0 C1.03443877 -0.00297112 2.06887753 -0.00594224 3.13466293 -0.0090034 C6.60596286 -0.01768506 10.07722828 -0.01919821 13.54853821 -0.02069092 C16.03548252 -0.02531947 18.52242612 -0.03034418 21.0093689 -0.03573608 C27.76986054 -0.04885864 34.53033869 -0.05534165 41.29083991 -0.05974674 C45.51470359 -0.06251205 49.738565 -0.06674995 53.96242714 -0.07125092 C65.66434809 -0.08344171 77.36626722 -0.09374123 89.06819439 -0.09712601 C89.81677642 -0.09734557 90.56535845 -0.09756514 91.33662479 -0.09779136 C92.08696649 -0.09800964 92.83730818 -0.09822791 93.6103875 -0.09845281 C95.1307867 -0.09889627 96.65118589 -0.09934283 98.17158508 -0.09979248 C98.92575062 -0.10001391 99.67991616 -0.10023534 100.4569352 -0.10046348 C112.67162427 -0.10440981 124.88625362 -0.12185964 137.10091963 -0.145152 C149.6510463 -0.16889025 162.20114304 -0.18132899 174.75129253 -0.18249393 C181.7938807 -0.18340932 188.83639106 -0.18912745 195.87895775 -0.20731354 C202.50521068 -0.22436465 209.13134227 -0.22594867 215.75761986 -0.21717453 C218.18677668 -0.21640426 220.61594145 -0.22074553 223.04507828 -0.23063278 C226.36738547 -0.24336011 229.6891707 -0.23747074 233.01147461 -0.22705078 C233.96723646 -0.23510719 234.92299832 -0.24316359 235.90772265 -0.25146413 C247.1585336 -0.16923219 257.4070274 3.33593102 265.83100891 10.95684814 C272.34683758 17.93809315 276.96160939 26.43620781 276.9367218 36.09259033 C276.93664627 37.07330505 276.93657074 38.05401978 276.93649292 39.06445312 C276.93133163 40.11562317 276.92617035 41.16679321 276.92085266 42.24981689 C276.91873024 43.87273651 276.91873024 43.87273651 276.91656494 45.52844238 C276.91096959 48.9824704 276.89841792 52.43643348 276.88569641 55.89044189 C276.88068081 58.23288887 276.87611801 60.57533687 276.87202454 62.91778564 C276.86100169 68.6586932 276.84426815 74.39956291 276.82319641 80.14044189 C277.77049622 80.12473145 278.71779602 80.109021 279.69380188 80.09283447 C283.25359214 80.04129689 286.81297824 80.00389514 290.3730011 79.97564697 C291.90529185 79.96068445 293.4375407 79.94030693 294.96968079 79.91412354 C308.94952957 79.68143023 320.28029828 80.98585732 330.79975891 91.02716064 C337.33111565 98.10048103 340.94980522 105.27091989 340.94624424 114.94253922 C340.94823511 116.1352317 340.95022598 117.32792419 340.95227718 118.55675888 C340.94936452 119.86765614 340.94645185 121.17855339 340.94345093 122.5291748 C340.94388833 123.93166117 340.9447652 125.33414745 340.94604492 126.7366333 C340.94829201 130.60253666 340.94426882 134.46841241 340.93926914 138.33431226 C340.93491041 142.56270704 340.93636323 146.7911005 340.93708706 151.01949692 C340.93761929 159.23197722 340.93299638 167.44444662 340.92658573 175.65692411 C340.91939392 185.15387253 340.91859143 194.65081437 340.9178009 204.14776611 C340.91254768 229.22865977 340.8985866 254.309551 340.88569641 279.39044189 C340.86507141 335.40794189 340.84444641 391.42544189 340.82319641 449.14044189 C192.65319641 449.14044189 44.48319641 449.14044189 -108.17680359 449.14044189 C-108.21805359 394.23669189 -108.25930359 339.33294189 -108.30180359 282.76544189 C-108.3200116 265.4193335 -108.3382196 248.0732251 -108.35697937 230.20147705 C-108.36601257 209.04547119 -108.36601257 209.04547119 -108.36769104 199.14639282 C-108.36955688 192.22181848 -108.37689654 185.29727638 -108.38795471 178.37271118 C-108.40069081 170.38561686 -108.40647419 162.39855347 -108.40369349 154.41144892 C-108.40248932 150.32624319 -108.4043908 146.24110662 -108.41523385 142.15591359 C-108.42498813 138.45840476 -108.42543623 134.76101378 -108.4186058 131.06349945 C-108.41736172 129.10038739 -108.42596126 127.13727661 -108.43496513 125.1741848 C-108.39148548 112.24813504 -106.62200005 100.74085424 -97.61430359 90.89044189 C-89.31256978 83.10953929 -79.8375015 79.9983674 -68.68852234 80.04278564 C-67.98532364 80.04420059 -67.28212494 80.04561554 -66.55761719 80.04707336 C-64.32646815 80.05264081 -62.09542195 80.06518715 -59.86430359 80.07794189 C-58.34542484 80.08296111 -56.8265445 80.08752328 -55.30766296 80.09161377 C-51.59734347 80.10259953 -47.88708358 80.11984155 -44.17680359 80.14044189 C-44.19251404 78.26509766 -44.19251404 78.26509766 -44.20854187 76.35186768 C-44.24498511 71.67400014 -44.26779192 66.99614494 -44.28666687 62.31817627 C-44.29666935 60.30090213 -44.31027565 58.28364229 -44.3276825 56.26641846 C-44.35218557 53.35199435 -44.3633445 50.43776341 -44.37211609 47.52325439 C-44.38243866 46.63429474 -44.39276123 45.74533508 -44.40339661 44.82943726 C-44.40573708 31.50294287 -40.8986859 20.145179 -31.69242859 10.25372314 C-22.28603901 2.35177165 -11.97676499 -0.01073274 0 0 Z " fill="#B1A9B7" transform="translate(139.1768035888672,31.85955810546875)"/>
<path d="M0 0 C2.19937657 -0.00959065 4.39777155 -0.04054112 6.59692383 -0.07226562 C19.65385073 -0.17212544 30.06701762 1.85684024 39.77856445 11.12695312 C46.30992119 18.20027351 49.92861076 25.37071237 49.92504978 35.0423317 C49.92704083 36.23465039 49.92903188 37.42696908 49.93108326 38.65541863 C49.92817042 39.96668969 49.92525758 41.27796074 49.92225647 42.62896729 C49.92269245 44.03485183 49.92356784 45.44073629 49.92484564 46.84662032 C49.9270854 50.71412838 49.92307637 54.58160883 49.91806757 58.44911337 C49.91375585 62.6181345 49.91521001 66.78715403 49.91596985 70.95617676 C49.91649462 78.18071106 49.91335265 85.40523634 49.90773201 92.62976837 C49.89961075 103.07527545 49.89700115 113.52077816 49.89574402 123.96628806 C49.89355449 140.9127492 49.88689707 157.85920553 49.87744141 174.80566406 C49.86826474 191.26920548 49.86118515 207.7327456 49.85693359 224.19628906 C49.85667087 225.21081666 49.85640815 226.22534427 49.85613746 227.27061513 C49.85483244 232.36011681 49.85356873 237.4496185 49.85232556 242.5391202 C49.84195602 284.77282919 49.82351936 327.0065293 49.80200195 369.24023438 C22.41200195 369.24023438 -4.97799805 369.24023438 -33.19799805 369.24023438 C-33.19799805 368.91023438 -33.19799805 368.58023437 -33.19799805 368.24023438 C-26.92799805 368.24023438 -20.65799805 368.24023438 -14.19799805 368.24023438 C-14.19799805 365.37287598 -14.19799805 362.50551758 -14.19799805 359.55126953 C-14.19799805 330.11425781 -14.19799805 300.67724609 -14.19799805 271.24023438 C-14.19886267 269.7535702 -14.19980725 268.26690607 -14.20079136 266.78024197 C-14.22231875 233.83171316 -14.23892288 200.88318618 -14.24906338 167.93465191 C-14.25031409 163.88571519 -14.25160841 159.83677849 -14.25292969 155.7878418 C-14.253192 154.98176912 -14.25345431 154.17569645 -14.25372457 153.34519733 C-14.2580832 140.27068123 -14.26597231 127.1961695 -14.27515084 114.12165599 C-14.2844866 100.71173097 -14.2900534 87.30180824 -14.29208654 73.8918801 C-14.29346167 65.61247295 -14.29781169 57.33307817 -14.30591451 49.05367482 C-14.31118101 43.38540374 -14.31280257 37.71713909 -14.31149942 32.04886573 C-14.31085594 28.77386228 -14.31241319 25.49888523 -14.31720352 22.22388458 C-14.32213336 18.68166362 -14.32099898 15.13949683 -14.31825256 11.59727478 C-14.3211654 10.55099582 -14.32407825 9.50471686 -14.32707936 8.42673248 C-14.32508831 7.48545802 -14.32309726 6.54418357 -14.32104588 5.57438564 C-14.3214256 4.7556536 -14.32180532 3.93692155 -14.32219654 3.09337944 C-13.96964948 -2.16691656 -4.15047073 0.01093788 0 0 Z " fill="#BAB4BF" transform="translate(430.197998046875,111.759765625)"/>
<path d="M0 0 C0.33 0 0.66 0 1 0 C1 35.64 1 71.28 1 108 C-8.24 108.33 -17.48 108.66 -27 109 C-30.38195581 112.38195581 -30.3666271 113.59210239 -30.44248962 118.18345642 C-30.43955399 119.00850174 -30.43661835 119.83354706 -30.43359375 120.68359375 C-30.4388356 121.53550797 -30.44407745 122.38742218 -30.44947815 123.26515198 C-30.45590004 125.06648672 -30.45455917 126.86786339 -30.44604492 128.66918945 C-30.43754136 131.42410089 -30.46628169 134.17693447 -30.49804688 136.93164062 C-30.49965916 138.68229105 -30.49908083 140.43294514 -30.49609375 142.18359375 C-30.50732773 143.00661484 -30.51856171 143.82963593 -30.53013611 144.67759705 C-30.48567846 148.33064089 -30.38950091 150.40224648 -28.36254883 153.51293945 C-25.32552266 155.42453668 -23.28242872 155.54184097 -19.703125 155.609375 C-18.07358887 155.65529785 -18.07358887 155.65529785 -16.41113281 155.70214844 C-15.03795898 155.71793945 -13.66478516 155.73373047 -12.25 155.75 C-5.69125 155.87375 -5.69125 155.87375 1 156 C1 166.23 1 176.46 1 187 C-12.8125 187.4375 -12.8125 187.4375 -17.15942383 187.56811523 C-18.28888428 187.60622314 -19.41834473 187.64433105 -20.58203125 187.68359375 C-21.73936768 187.72025146 -22.8967041 187.75690918 -24.08911133 187.79467773 C-27.0643446 187.88328509 -27.0643446 187.88328509 -30 189 C-30.09891077 194.76573685 -30.17148845 200.5309794 -30.21972656 206.29736328 C-30.23983632 208.25871381 -30.26712818 210.22000444 -30.30175781 212.18115234 C-30.35030421 215.00112695 -30.37297486 217.82030865 -30.390625 220.640625 C-30.41127014 221.51680481 -30.43191528 222.39298462 -30.45318604 223.29571533 C-30.45457847 227.07748731 -30.43994555 229.31294731 -28.36914062 232.546875 C-25.32869981 234.41174554 -23.26223081 234.54222206 -19.703125 234.609375 C-18.07358887 234.65529785 -18.07358887 234.65529785 -16.41113281 234.70214844 C-15.03795898 234.71793945 -13.66478516 234.73373047 -12.25 234.75 C-5.69125 234.87375 -5.69125 234.87375 1 235 C1 245.23 1 255.46 1 266 C-12.8125 266.3125 -12.8125 266.3125 -17.15942383 266.38793945 C-18.28888428 266.42105225 -19.41834473 266.45416504 -20.58203125 266.48828125 C-21.73936768 266.51446533 -22.8967041 266.54064941 -24.08911133 266.56762695 C-27.35077641 267.05210308 -28.02601194 267.46947795 -30 270 C-30.29847993 273.04862525 -30.42021845 275.88860095 -30.3984375 278.9375 C-30.40274277 280.2522229 -30.40274277 280.2522229 -30.40713501 281.59350586 C-30.40917598 283.44613288 -30.40364378 285.29878142 -30.39111328 287.15136719 C-30.37505984 289.98942179 -30.39096055 292.82605227 -30.41015625 295.6640625 C-30.40817382 297.46354481 -30.40433016 299.26302624 -30.3984375 301.0625 C-30.40451019 301.91255615 -30.41058289 302.7626123 -30.4168396 303.63842773 C-30.39093165 308.93359153 -30.39093165 308.93359153 -27 313 C-17.76 313.33 -8.52 313.66 1 314 C1 346.01 1 378.02 1 411 C10.9 411 20.8 411 31 411 C31 411.33 31 411.66 31 412 C-0.35 412 -31.7 412 -64 412 C-64.04409787 369.62058992 -64.08102355 327.24120148 -64.10213066 284.86177502 C-64.10463205 279.857557 -64.10722069 274.85333904 -64.10986328 269.84912109 C-64.1103879 268.85287886 -64.11091252 267.85663663 -64.11145304 266.83020525 C-64.12015369 250.70296982 -64.1359218 234.57574866 -64.15430559 218.44852169 C-64.17301409 201.89831267 -64.18411874 185.34811113 -64.18817699 168.79789197 C-64.19092007 158.5870062 -64.19958139 148.37616077 -64.21583293 138.16528742 C-64.22641153 131.16162164 -64.22959864 124.15797669 -64.22700275 117.15430351 C-64.22572283 113.11465545 -64.22767362 109.07507785 -64.23841095 105.03544235 C-64.24818043 101.3328023 -64.24861103 97.63027975 -64.24179779 93.92763416 C-64.24055954 91.96262674 -64.2491521 89.99762058 -64.25816262 88.03263342 C-64.214667 75.10698709 -62.44487744 63.60006348 -53.4375 53.75 C-45.13576619 45.9690974 -35.66069792 42.85792551 -24.51171875 42.90234375 C-22.58138794 42.90609009 -22.58138794 42.90609009 -20.61206055 42.90991211 C-18.98695557 42.91901611 -17.36185059 42.92812012 -15.6875 42.9375 C-10.510625 42.958125 -5.33375 42.97875 0 43 C0 28.81 0 14.62 0 0 Z " fill="#8D8793" transform="translate(95,69)"/>
<path d="M0 0 C1.24882462 -0.01606293 2.49764923 -0.03212585 3.78431702 -0.04867554 C5.15104486 -0.06016793 6.51778039 -0.07077564 7.88452148 -0.08056641 C8.57537275 -0.08589008 9.26622402 -0.09121376 9.97801018 -0.09669876 C13.63995121 -0.12341572 17.30185845 -0.14278887 20.96386719 -0.15722656 C23.97947823 -0.17052226 26.99440559 -0.19829381 30.00976562 -0.23925781 C33.66377824 -0.28888822 37.31717474 -0.31338498 40.97150993 -0.32045364 C42.35606554 -0.32711949 43.74060995 -0.34221832 45.12497139 -0.36634445 C53.84705374 -0.5095878 60.62799418 0.15468674 67.94311523 5.19287109 C70.19702148 7.47412109 70.19702148 7.47412109 71.50561523 9.69287109 C71.9606543 10.42505859 72.41569336 11.15724609 72.88452148 11.91162109 C74.93483649 16.3300121 75.06645154 20.63474644 75.05664062 25.4519043 C75.05651978 26.71006958 75.05639893 27.96823486 75.05627441 29.26452637 C75.05115845 30.57763794 75.04604248 31.89074951 75.04077148 33.24365234 C75.0397644 34.45742554 75.03875732 35.67119873 75.03771973 36.92175293 C75.03249335 41.44963528 75.01853207 45.97750415 75.00561523 50.50537109 C74.98499023 60.63224609 74.96436523 70.75912109 74.94311523 81.19287109 C42.93311523 81.19287109 10.92311523 81.19287109 -22.05688477 81.19287109 C-22.11875977 70.61224609 -22.18063477 60.03162109 -22.24438477 49.13037109 C-22.27169678 45.80064209 -22.29900879 42.47091309 -22.32714844 39.0402832 C-22.33591285 36.39193077 -22.34355689 33.74357429 -22.34985352 31.09521484 C-22.35769363 30.41439346 -22.36553375 29.73357208 -22.37361145 29.03211975 C-22.5463089 13.23325693 -22.5463089 13.23325693 -16.68188477 6.44287109 C-11.30599576 1.83496623 -7.05024817 0.08241677 0 0 Z " fill="#453752" transform="translate(230.056884765625,399.80712890625)"/>
<path d="M0 0 C1.17965332 -0.00619858 2.35930664 -0.01239716 3.57470703 -0.01878357 C6.06607234 -0.02588004 8.55748509 -0.02271086 11.04882812 -0.01000977 C14.8615638 0.00385738 18.67184648 -0.03022425 22.484375 -0.06835938 C24.9062506 -0.06931055 27.32812927 -0.06745183 29.75 -0.0625 C30.88969238 -0.07575821 32.02938477 -0.08901642 33.20361328 -0.10267639 C37.9940332 -0.04628092 40.9786838 0.00593685 45.09570312 2.58032227 C47.38116314 6.41586857 47.56144718 9.63137645 47.46875 13.97265625 C47.46879028 14.77497681 47.46883057 15.57729736 47.46887207 16.40393066 C47.46352641 18.09505068 47.44598422 19.78617085 47.41699219 21.47705078 C47.37512994 24.05839349 47.37592685 26.63712492 47.3828125 29.21875 C47.37231904 30.86590346 47.35938008 32.51304353 47.34375 34.16015625 C47.34344788 35.31191345 47.34344788 35.31191345 47.34313965 36.48693848 C47.24401692 40.99865369 46.68152434 43.98353613 43.875 47.56640625 C41.33340235 48.83720508 39.50810168 48.72118057 36.66259766 48.75927734 C35.57451813 48.77534027 34.4864386 48.7914032 33.36538696 48.80795288 C28.39203449 48.85230135 23.41881626 48.89345535 18.4453125 48.91650391 C15.8185949 48.93308344 13.19192277 48.96039918 10.56542969 48.99853516 C6.78556832 49.05315743 3.00676478 49.07515535 -0.7734375 49.08984375 C-1.94957611 49.11251312 -3.12571472 49.1351825 -4.3374939 49.15853882 C-12.33450823 49.13771269 -12.33450823 49.13771269 -15.86157227 46.58862305 C-17.5609236 42.52364331 -17.71800981 39.05747895 -17.69140625 34.6875 C-17.69760483 33.83841568 -17.70380341 32.98933136 -17.71018982 32.11451721 C-17.71727402 30.32513574 -17.71413842 28.53568816 -17.70141602 26.74633789 C-17.68752432 24.0086984 -17.72166833 21.27446171 -17.75976562 18.53710938 C-17.76071664 16.79557208 -17.75885892 15.05403051 -17.75390625 13.3125 C-17.76716446 12.49575302 -17.78042267 11.67900604 -17.79408264 10.83750916 C-17.73310249 7.11845466 -17.53094766 5.13863835 -15.34350586 2.05517578 C-10.31991057 -0.26856571 -5.47143781 -0.02381135 0 0 Z " fill="#4BC9F9" transform="translate(193.125,159.43359375)"/>
<path d="M0 0 C1.18343994 0.00233139 2.36687988 0.00466278 3.58618164 0.00706482 C6.0878012 0.01680649 8.58939854 0.03860285 11.09082031 0.0715332 C14.92285775 0.1209051 18.75361086 0.13301149 22.5859375 0.13867188 C25.01563868 0.15275916 27.44532869 0.16896402 29.875 0.1875 C31.02299072 0.1928627 32.17098145 0.1982254 33.35375977 0.20375061 C34.42166748 0.21973801 35.4895752 0.2357254 36.58984375 0.25219727 C37.52820068 0.26283707 38.46655762 0.27347687 39.43334961 0.28443909 C42.10263894 0.57667318 43.69574517 1.09600918 45.9375 2.55859375 C48.45933623 6.34134809 48.24341551 9.38589494 48.23828125 13.76953125 C48.24256638 14.5746817 48.2468515 15.37983215 48.25126648 16.2093811 C48.25700761 17.9123643 48.25751163 19.61537202 48.25317383 21.31835938 C48.25002002 23.91709555 48.27345315 26.51468634 48.29882812 29.11328125 C48.30110184 30.76952982 48.30180428 32.42578144 48.30078125 34.08203125 C48.309991 34.85614349 48.31920074 35.63025574 48.32868958 36.42782593 C48.28991263 40.97679757 47.78020933 43.95225551 44.9375 47.55859375 C42.42219907 48.81624422 40.64817768 48.71293741 37.83276367 48.75146484 C36.76793259 48.76752777 35.7031015 48.7835907 34.60600281 48.80014038 C29.73400454 48.84452568 24.86214331 48.88565228 19.98999023 48.90869141 C17.41860916 48.92525896 14.84727428 48.95255904 12.27612305 48.99072266 C8.57316133 49.04541928 4.87127975 49.06735534 1.16796875 49.08203125 C0.0188652 49.10470062 -1.13023834 49.12737 -2.31416321 49.15072632 C-7.12579736 49.13796127 -10.13921646 49.12933814 -14.28759766 46.56494141 C-16.65822343 42.54955134 -16.76841898 39.52077938 -16.69140625 34.93359375 C-16.69381821 34.10907715 -16.69623016 33.28456055 -16.69871521 32.43505859 C-16.69773846 30.69689103 -16.68438567 28.95869171 -16.65942383 27.22070312 C-16.6251039 24.56662879 -16.638774 21.91588461 -16.65820312 19.26171875 C-16.65130431 17.56899631 -16.6416316 15.87628242 -16.62890625 14.18359375 C-16.63386612 13.39388184 -16.63882599 12.60416992 -16.64393616 11.79052734 C-16.56913374 8.27498017 -16.17284837 5.81727858 -14.78100586 2.55444336 C-10.26655717 -0.75993635 -5.4458975 -0.09265842 0 0 Z " fill="#4BC9F9" transform="translate(192.0625,320.44140625)"/>
<path d="M0 0 C1.18343994 0.00233139 2.36687988 0.00466278 3.58618164 0.00706482 C6.0878012 0.01680649 8.58939854 0.03860285 11.09082031 0.0715332 C14.92285775 0.1209051 18.75361086 0.13301149 22.5859375 0.13867188 C25.01563868 0.15275916 27.44532869 0.16896402 29.875 0.1875 C31.02299072 0.1928627 32.17098145 0.1982254 33.35375977 0.20375061 C34.42166748 0.21973801 35.4895752 0.2357254 36.58984375 0.25219727 C37.52820068 0.26283707 38.46655762 0.27347687 39.43334961 0.28443909 C42.10263894 0.57667318 43.69574517 1.09600918 45.9375 2.55859375 C48.45933623 6.34134809 48.24341551 9.38589494 48.23828125 13.76953125 C48.24256638 14.5746817 48.2468515 15.37983215 48.25126648 16.2093811 C48.25700761 17.9123643 48.25751163 19.61537202 48.25317383 21.31835938 C48.25002002 23.91709555 48.27345315 26.51468634 48.29882812 29.11328125 C48.30110184 30.76952982 48.30180428 32.42578144 48.30078125 34.08203125 C48.309991 34.85614349 48.31920074 35.63025574 48.32868958 36.42782593 C48.28991263 40.97679757 47.78020933 43.95225551 44.9375 47.55859375 C42.42219907 48.81624422 40.64817768 48.71293741 37.83276367 48.75146484 C36.76793259 48.76752777 35.7031015 48.7835907 34.60600281 48.80014038 C29.73400454 48.84452568 24.86214331 48.88565228 19.98999023 48.90869141 C17.41860916 48.92525896 14.84727428 48.95255904 12.27612305 48.99072266 C8.57316133 49.04541928 4.87127975 49.06735534 1.16796875 49.08203125 C0.0188652 49.10470062 -1.13023834 49.12737 -2.31416321 49.15072632 C-7.12579736 49.13796127 -10.13921646 49.12933814 -14.28759766 46.56494141 C-16.65822343 42.54955134 -16.76841898 39.52077938 -16.69140625 34.93359375 C-16.69381821 34.10907715 -16.69623016 33.28456055 -16.69871521 32.43505859 C-16.69773846 30.69689103 -16.68438567 28.95869171 -16.65942383 27.22070312 C-16.6251039 24.56662879 -16.638774 21.91588461 -16.65820312 19.26171875 C-16.65130431 17.56899631 -16.6416316 15.87628242 -16.62890625 14.18359375 C-16.63386612 13.39388184 -16.63882599 12.60416992 -16.64393616 11.79052734 C-16.56913374 8.27498017 -16.17284837 5.81727858 -14.78100586 2.55444336 C-10.26655717 -0.75993635 -5.4458975 -0.09265842 0 0 Z " fill="#4BC9F9" transform="translate(192.0625,80.44140625)"/>
<path d="M0 0 C1.60186157 -0.00922989 1.60186157 -0.00922989 3.23608398 -0.01864624 C4.38407471 -0.00427521 5.53206543 0.01009583 6.71484375 0.02490234 C7.89828369 0.02581879 9.08172363 0.02673523 10.30102539 0.02767944 C12.80261242 0.03372023 15.30419206 0.04948033 17.80566406 0.07421875 C21.63764053 0.11069987 25.46864936 0.11523828 29.30078125 0.11474609 C31.73047712 0.12457814 34.16016643 0.13623551 36.58984375 0.14990234 C37.73783447 0.15212799 38.8858252 0.15435364 40.06860352 0.15664673 C41.67046509 0.17578629 41.67046509 0.17578629 43.3046875 0.1953125 C44.24304443 0.2029361 45.18140137 0.21055969 46.14819336 0.21841431 C48.7916332 0.50071497 50.42213028 1.05753761 52.65234375 2.48583984 C54.32671146 5.83457527 53.85868422 9.60616846 53.890625 13.29052734 C53.89869675 14.16605255 53.90676849 15.04157776 53.91508484 15.94363403 C53.92892596 17.79801451 53.93964799 19.65242047 53.94750977 21.50683594 C53.96473404 24.3427755 54.00862018 27.17755271 54.05273438 30.01318359 C54.0628603 31.81395626 54.07137672 33.61473885 54.078125 35.41552734 C54.09563309 36.26355927 54.11314117 37.11159119 54.13117981 37.98532104 C54.12825424 38.77939362 54.12532867 39.57346619 54.12231445 40.39160156 C54.12818069 41.08728241 54.13404694 41.78296326 54.14009094 42.49972534 C53.41245756 45.4626603 52.04479721 46.64644385 49.65234375 48.48583984 C47.11022949 48.99377441 47.11022949 48.99377441 44.21289062 49.00341797 C43.12496216 49.01602661 42.03703369 49.02863525 40.9161377 49.04162598 C39.74627319 49.03352905 38.57640869 49.02543213 37.37109375 49.01708984 C35.56263977 49.0228302 35.56263977 49.0228302 33.71765137 49.02868652 C31.1690182 49.0314081 28.62035721 49.0240299 26.07177734 49.00732422 C22.16701073 48.98592024 18.26408427 49.00711988 14.359375 49.03271484 C11.88411052 49.03007161 9.40884718 49.02494674 6.93359375 49.01708984 C5.178797 49.02923523 5.178797 49.02923523 3.3885498 49.04162598 C2.30062134 49.02901733 1.21269287 49.01640869 0.09179688 49.00341797 C-1.34238586 48.99864441 -1.34238586 48.99864441 -2.80554199 48.99377441 C-6.12727082 48.33006668 -7.31378688 47.15566015 -9.34765625 44.48583984 C-9.85559082 42.51318359 -9.85559082 42.51318359 -9.86523438 40.42333984 C-9.87784302 39.63572266 -9.89045166 38.84810547 -9.90344238 38.03662109 C-9.89534546 37.19486328 -9.88724854 36.35310547 -9.87890625 35.48583984 C-9.88273315 34.61314453 -9.88656006 33.74044922 -9.89050293 32.84130859 C-9.89322115 30.99884892 -9.88586619 29.1563506 -9.86914062 27.31396484 C-9.84772873 24.49538051 -9.86894426 21.679345 -9.89453125 18.86083984 C-9.89188796 17.06916756 -9.88676294 15.27749685 -9.87890625 13.48583984 C-9.88700317 12.64408203 -9.8951001 11.80232422 -9.90344238 10.93505859 C-9.89083374 10.14744141 -9.8782251 9.35982422 -9.86523438 8.54833984 C-9.862052 7.85869141 -9.85886963 7.16904297 -9.85559082 6.45849609 C-8.52177057 1.27836265 -4.91750943 -0.01493577 0 0 Z " fill="#4BCAF9" transform="translate(281.34765625,320.51416015625)"/>
<path d="M0 0 C1.60186157 -0.00922989 1.60186157 -0.00922989 3.23608398 -0.01864624 C4.38407471 -0.00427521 5.53206543 0.01009583 6.71484375 0.02490234 C7.89828369 0.02581879 9.08172363 0.02673523 10.30102539 0.02767944 C12.80261242 0.03372023 15.30419206 0.04948033 17.80566406 0.07421875 C21.63764053 0.11069987 25.46864936 0.11523828 29.30078125 0.11474609 C31.73047712 0.12457814 34.16016643 0.13623551 36.58984375 0.14990234 C37.73783447 0.15212799 38.8858252 0.15435364 40.06860352 0.15664673 C41.67046509 0.17578629 41.67046509 0.17578629 43.3046875 0.1953125 C44.24304443 0.2029361 45.18140137 0.21055969 46.14819336 0.21841431 C48.7916332 0.50071497 50.42213028 1.05753761 52.65234375 2.48583984 C54.32671146 5.83457527 53.85868422 9.60616846 53.890625 13.29052734 C53.89869675 14.16605255 53.90676849 15.04157776 53.91508484 15.94363403 C53.92892596 17.79801451 53.93964799 19.65242047 53.94750977 21.50683594 C53.96473404 24.3427755 54.00862018 27.17755271 54.05273438 30.01318359 C54.0628603 31.81395626 54.07137672 33.61473885 54.078125 35.41552734 C54.09563309 36.26355927 54.11314117 37.11159119 54.13117981 37.98532104 C54.12825424 38.77939362 54.12532867 39.57346619 54.12231445 40.39160156 C54.12818069 41.08728241 54.13404694 41.78296326 54.14009094 42.49972534 C53.41245756 45.4626603 52.04479721 46.64644385 49.65234375 48.48583984 C47.11022949 48.99377441 47.11022949 48.99377441 44.21289062 49.00341797 C43.12496216 49.01602661 42.03703369 49.02863525 40.9161377 49.04162598 C39.74627319 49.03352905 38.57640869 49.02543213 37.37109375 49.01708984 C35.56263977 49.0228302 35.56263977 49.0228302 33.71765137 49.02868652 C31.1690182 49.0314081 28.62035721 49.0240299 26.07177734 49.00732422 C22.16701073 48.98592024 18.26408427 49.00711988 14.359375 49.03271484 C11.88411052 49.03007161 9.40884718 49.02494674 6.93359375 49.01708984 C5.178797 49.02923523 5.178797 49.02923523 3.3885498 49.04162598 C2.30062134 49.02901733 1.21269287 49.01640869 0.09179688 49.00341797 C-1.34238586 48.99864441 -1.34238586 48.99864441 -2.80554199 48.99377441 C-6.12727082 48.33006668 -7.31378688 47.15566015 -9.34765625 44.48583984 C-9.85559082 42.51318359 -9.85559082 42.51318359 -9.86523438 40.42333984 C-9.87784302 39.63572266 -9.89045166 38.84810547 -9.90344238 38.03662109 C-9.89534546 37.19486328 -9.88724854 36.35310547 -9.87890625 35.48583984 C-9.88273315 34.61314453 -9.88656006 33.74044922 -9.89050293 32.84130859 C-9.89322115 30.99884892 -9.88586619 29.1563506 -9.86914062 27.31396484 C-9.84772873 24.49538051 -9.86894426 21.679345 -9.89453125 18.86083984 C-9.89188796 17.06916756 -9.88676294 15.27749685 -9.87890625 13.48583984 C-9.88700317 12.64408203 -9.8951001 11.80232422 -9.90344238 10.93505859 C-9.89083374 10.14744141 -9.8782251 9.35982422 -9.86523438 8.54833984 C-9.862052 7.85869141 -9.85886963 7.16904297 -9.85559082 6.45849609 C-8.52177057 1.27836265 -4.91750943 -0.01493577 0 0 Z " fill="#4CCAF9" transform="translate(281.34765625,80.51416015625)"/>
<path d="M0 0 C1.13526123 -0.00145523 2.27052246 -0.00291046 3.44018555 -0.00440979 C5.83742848 -0.00275179 8.23468217 0.00879827 10.63183594 0.02954102 C14.29928852 0.05848947 17.96529485 0.05014791 21.6328125 0.03710938 C23.96354869 0.04334713 26.29428031 0.05173835 28.625 0.0625 C29.72094482 0.05956436 30.81688965 0.05662872 31.94604492 0.05360413 C32.97060791 0.0662883 33.9951709 0.07897247 35.05078125 0.09204102 C35.94837158 0.097444 36.84596191 0.10284698 37.77075195 0.1084137 C41.1618344 0.62563846 43.87218707 2.05578082 46.3125 4.49609375 C46.45090194 7.40635247 46.52568846 10.29114716 46.55078125 13.203125 C46.558853 14.08006516 46.56692474 14.95700531 46.57524109 15.86051941 C46.58909913 17.72087619 46.59981356 19.58125857 46.60766602 21.44165039 C46.62486619 24.28646154 46.66873436 27.13010699 46.71289062 29.97460938 C46.72301824 31.77993935 46.73153413 33.58527923 46.73828125 35.390625 C46.75578934 36.24179398 46.77329742 37.09296295 46.79133606 37.96992493 C46.78841049 38.76722519 46.78548492 39.56452545 46.7824707 40.38598633 C46.78833694 41.08468338 46.79420319 41.78338043 46.80024719 42.50325012 C46.07383179 45.47124733 44.70924893 46.65442407 42.3125 48.49609375 C39.77038574 49.00402832 39.77038574 49.00402832 36.87304688 49.01367188 C35.78511841 49.02628052 34.69718994 49.03888916 33.57629395 49.05187988 C32.40642944 49.04378296 31.23656494 49.03568604 30.03125 49.02734375 C28.22279602 49.03308411 28.22279602 49.03308411 26.37780762 49.03894043 C23.82917445 49.04166201 21.28051346 49.0342838 18.73193359 49.01757812 C14.82716698 48.99617415 10.92424052 49.01737378 7.01953125 49.04296875 C4.54426677 49.04032552 2.06900343 49.03520065 -0.40625 49.02734375 C-2.16104675 49.03948914 -2.16104675 49.03948914 -3.95129395 49.05187988 C-5.03922241 49.03927124 -6.12715088 49.0266626 -7.24804688 49.01367188 C-8.68222961 49.00889832 -8.68222961 49.00889832 -10.14538574 49.00402832 C-13.46709486 48.34032452 -14.65292234 47.16527954 -16.6875 44.49609375 C-17.2021637 42.5234375 -17.2021637 42.5234375 -17.22094727 40.43359375 C-17.2367836 39.64597656 -17.25261993 38.85835937 -17.26893616 38.046875 C-17.26397629 37.20511719 -17.25901642 36.36335938 -17.25390625 35.49609375 C-17.26010483 34.62339844 -17.26630341 33.75070313 -17.27268982 32.8515625 C-17.27978388 31.00912592 -17.27662116 29.16662518 -17.26391602 27.32421875 C-17.25004536 24.50531135 -17.28412952 21.68972099 -17.32226562 18.87109375 C-17.32321681 17.07942627 -17.32135805 15.28775464 -17.31640625 13.49609375 C-17.32966446 12.65433594 -17.34292267 11.81257812 -17.35658264 10.9453125 C-17.29616286 7.14835739 -17.12260991 5.10503621 -14.87866211 1.96459961 C-9.97712042 -0.29098705 -5.33347093 -0.05467072 0 0 Z " fill="#4CCAF9" transform="translate(288.6875,159.50390625)"/>
<path d="M0 0 C1.66676537 -0.01407143 1.66676537 -0.01407143 3.36720276 -0.02842712 C5.15951576 -0.01157616 5.15951576 -0.01157616 6.98803711 0.00561523 C8.21824081 0.00416 9.44844452 0.00270477 10.71592712 0.00120544 C13.31585052 0.00286518 15.91578366 0.01443462 18.515625 0.03515625 C21.18480451 0.05454417 23.85153088 0.06486827 26.52050781 0.05566406 C30.3640864 0.04309792 34.20698331 0.05172525 38.05053711 0.06811523 C39.24743668 0.0651796 40.44433624 0.06224396 41.67750549 0.05921936 C42.78553024 0.07190353 43.89355499 0.08458771 45.03515625 0.09765625 C46.01126358 0.10305923 46.98737091 0.10846222 47.99305725 0.11402893 C50.87805139 0.56871791 51.74046303 1.17596423 53.45288086 3.50170898 C54.66345224 7.13342313 54.63411474 10.49218533 54.65600586 14.27514648 C54.66170593 15.03590485 54.66740601 15.79666321 54.67327881 16.58047485 C54.68271834 18.1892966 54.68925863 19.7981376 54.69311523 21.40698242 C54.70281787 23.86077814 54.73384866 26.31373488 54.76538086 28.76733398 C54.77191171 30.33243319 54.77716186 31.89753837 54.78100586 33.46264648 C54.79335266 34.19301117 54.80569946 34.92337585 54.81842041 35.6758728 C54.79721516 40.55599711 53.96496528 43.98962457 50.45288086 47.50170898 C48.72544462 47.61626172 46.99335007 47.66133114 45.26220703 47.67871094 C44.15403122 47.69154617 43.04585541 47.70438141 41.90409851 47.71760559 C40.69687637 47.72499252 39.48965424 47.73237946 38.24584961 47.73999023 C37.01377274 47.74806198 35.78169586 47.75613373 34.51228333 47.76445007 C31.89866553 47.77831133 29.28502948 47.7890243 26.67138672 47.796875 C23.98918963 47.80573733 21.30751024 47.82661066 18.62548828 47.85839844 C14.76961508 47.90091161 10.91442761 47.91722321 7.05834961 47.92749023 C5.85720016 47.94499832 4.65605072 47.96250641 3.41850281 47.98054504 C1.74205437 47.97615669 1.74205437 47.97615669 0.03173828 47.97167969 C-0.95119705 47.97754593 -1.93413239 47.98341217 -2.94685364 47.98945618 C-6.31958026 47.35681388 -7.49251455 46.20933451 -9.54711914 43.50170898 C-10.05505371 41.5670166 -10.05505371 41.5670166 -10.06469727 39.53100586 C-10.07730591 38.76340942 -10.08991455 37.99581299 -10.10290527 37.20495605 C-10.09480835 36.38507202 -10.08671143 35.56518799 -10.07836914 34.72045898 C-10.08219604 33.86995972 -10.08602295 33.01946045 -10.08996582 32.14318848 C-10.09268372 30.34780695 -10.08533096 28.55238574 -10.06860352 26.75708008 C-10.04719081 24.01090105 -10.06840785 21.26733801 -10.09399414 18.52124023 C-10.09135084 16.77514072 -10.08622581 15.02904283 -10.07836914 13.28295898 C-10.08646606 12.46307495 -10.09456299 11.64319092 -10.10290527 10.79846191 C-10.09029663 10.03086548 -10.07768799 9.26326904 -10.06469727 8.47241211 C-10.06151489 7.80052856 -10.05833252 7.12864502 -10.05505371 6.43640137 C-8.6729987 1.17223654 -4.97052469 0.00084547 0 0 Z " fill="#4BC9F9" transform="translate(185.547119140625,239.498291015625)"/>
<path d="M0 0 C1.13127319 -0.00938095 2.26254639 -0.0187619 3.42810059 -0.02842712 C5.26096619 -0.01157616 5.26096619 -0.01157616 7.13085938 0.00561523 C8.38467407 0.00416 9.63848877 0.00270477 10.93029785 0.00120544 C13.58380685 0.00286704 16.23588792 0.01237886 18.88916016 0.03515625 C22.28905739 0.06354214 25.68805663 0.06080438 29.08802032 0.04806614 C32.3315246 0.03943665 35.57488325 0.05455516 38.81835938 0.06811523 C40.65122498 0.06371178 40.65122498 0.06371178 42.52111816 0.05921936 C44.21802795 0.07824562 44.21802795 0.07824562 45.94921875 0.09765625 C46.94610718 0.10305923 47.94299561 0.10846222 48.97009277 0.11402893 C51.47460938 0.50170898 51.47460938 0.50170898 53.29469299 1.78015137 C55.43403686 4.90156216 54.92088985 8.74398664 54.90820312 12.40405273 C54.91344498 13.27816299 54.91868683 14.15227325 54.92408752 15.0528717 C54.93050996 16.90128518 54.92916785 18.74973951 54.9206543 20.59814453 C54.91215071 23.42546482 54.94089085 26.25076059 54.97265625 29.07788086 C54.97426852 30.87410421 54.97369023 32.67033114 54.97070312 34.46655273 C54.9819371 35.3114476 54.99317108 36.15634247 55.00474548 37.02684021 C54.99067406 38.21310753 54.99067406 38.21310753 54.97631836 39.42333984 C54.97615219 40.11600449 54.97598602 40.80866913 54.97581482 41.52232361 C54.22887138 44.47218966 52.86055668 45.66471391 50.47460938 47.50170898 C47.93249512 48.00964355 47.93249512 48.00964355 45.03515625 48.01928711 C43.94722778 48.03189575 42.85929932 48.04450439 41.73840332 48.05749512 C40.56853882 48.04939819 39.39867432 48.04130127 38.19335938 48.03295898 C36.3849054 48.03869934 36.3849054 48.03869934 34.53991699 48.04455566 C31.99128382 48.04727724 29.44262284 48.03989904 26.89404297 48.02319336 C22.98927635 48.00178938 19.0863499 48.02298902 15.18164062 48.04858398 C12.70637614 48.04594075 10.2311128 48.04081588 7.75585938 48.03295898 C6.00106262 48.04510437 6.00106262 48.04510437 4.21081543 48.05749512 C3.12288696 48.04488647 2.0349585 48.03227783 0.9140625 48.01928711 C-0.52012024 48.01451355 -0.52012024 48.01451355 -1.98327637 48.00964355 C-5.30258765 47.34641886 -6.49079634 46.16714553 -8.52539062 43.50170898 C-9.02659607 41.5670166 -9.02659607 41.5670166 -9.02709961 39.53100586 C-9.03648056 38.76340942 -9.04586151 37.99581299 -9.05552673 37.20495605 C-9.03867577 35.97513 -9.03867577 35.97513 -9.02148438 34.72045898 C-9.02293961 33.86995972 -9.02439484 33.01946045 -9.02589417 32.14318848 C-9.02423663 30.34778411 -9.01269159 28.55236532 -8.99194336 26.75708008 C-8.96299054 24.01118529 -8.97133638 21.26722199 -8.984375 18.52124023 C-8.9781372 16.77513711 -8.96974593 15.02904008 -8.95898438 13.28295898 C-8.96192001 12.46307495 -8.96485565 11.64319092 -8.96788025 10.79846191 C-8.84912774 3.61202587 -7.58358724 0.00126408 0 0 Z " fill="#4CCAFA" transform="translate(280.525390625,239.498291015625)"/>
<path d="M0 0 C1.12696289 0.00999023 2.25392578 0.01998047 3.41503906 0.03027344 C5.55311035 0.08489746 5.55311035 0.08489746 7.734375 0.140625 C12.271875 0.223125 16.809375 0.305625 21.484375 0.390625 C21.484375 16.230625 21.484375 32.070625 21.484375 48.390625 C14.678125 48.514375 14.678125 48.514375 7.734375 48.640625 C6.30899414 48.67704102 4.88361328 48.71345703 3.41503906 48.75097656 C2.28807617 48.7609668 1.16111328 48.77095703 0 48.78125 C-1.72814941 48.8126709 -1.72814941 48.8126709 -3.49121094 48.84472656 C-6.515625 48.390625 -6.515625 48.390625 -8.88964844 46.92871094 C-11.30717444 43.15504722 -11.08916976 39.78759656 -11.046875 35.390625 C-11.0507019 34.51792969 -11.05452881 33.64523437 -11.05847168 32.74609375 C-11.0611899 30.90363408 -11.05383494 29.06113576 -11.03710938 27.21875 C-11.01569748 24.40016566 -11.03691301 21.58413015 -11.0625 18.765625 C-11.05985671 16.97395271 -11.05473169 15.18228201 -11.046875 13.390625 C-11.05497192 12.54886719 -11.06306885 11.70710938 -11.07141113 10.83984375 C-11.01240344 7.15384274 -10.90849516 5.00387998 -8.88964844 1.85253906 C-5.75339217 -0.07875491 -3.6716104 -0.06675655 0 0 Z " fill="#40A7E7" transform="translate(74.515625,334.609375)"/>
<path d="M0 0 C6.80625 -0.12375 6.80625 -0.12375 13.75 -0.25 C15.17538086 -0.28641602 16.60076172 -0.32283203 18.06933594 -0.36035156 C19.75978027 -0.37533691 19.75978027 -0.37533691 21.484375 -0.390625 C22.63647461 -0.41157227 23.78857422 -0.43251953 24.97558594 -0.45410156 C28 0 28 0 30.37402344 1.4777832 C32.71624351 5.1110378 32.57274613 8.56032655 32.53125 12.74609375 C32.5350769 13.59422134 32.53890381 14.44234894 32.54284668 15.31617737 C32.54556486 17.10736276 32.53821019 18.89858791 32.52148438 20.68969727 C32.50009854 23.42489644 32.52127405 26.15746123 32.546875 28.89257812 C32.54423119 30.63542244 32.5391051 32.37826513 32.53125 34.12109375 C32.53934692 34.9358165 32.54744385 35.75053925 32.55578613 36.58995056 C32.49324146 40.39720759 32.20692778 42.61510191 30.37402344 46.02441406 C27.25046673 48.62373747 25.51468699 48.57987925 21.484375 48.48828125 C20.35741211 48.47579346 19.23044922 48.46330566 18.06933594 48.45043945 C16.64395508 48.40491943 15.21857422 48.35939941 13.75 48.3125 C6.94375 48.1578125 6.94375 48.1578125 0 48 C0 32.16 0 16.32 0 0 Z " fill="#3DB5F7" transform="translate(416,177)"/>
<path d="M0 0 C1.12696289 0.00999023 2.25392578 0.01998047 3.41503906 0.03027344 C5.55311035 0.08489746 5.55311035 0.08489746 7.734375 0.140625 C12.271875 0.223125 16.809375 0.305625 21.484375 0.390625 C21.484375 16.230625 21.484375 32.070625 21.484375 48.390625 C14.9565625 48.5453125 14.9565625 48.5453125 8.296875 48.703125 C6.93280518 48.74864502 5.56873535 48.79416504 4.16333008 48.84106445 C2.53754028 48.85979614 2.53754028 48.85979614 0.87890625 48.87890625 C-0.77854614 48.91818237 -0.77854614 48.91818237 -2.46948242 48.95825195 C-6.68188244 48.17330124 -8.04969978 46.8762345 -10.515625 43.390625 C-11.20719772 40.41843314 -11.19402083 37.55287505 -11.14453125 34.51171875 C-11.14694321 33.66263443 -11.14935516 32.81355011 -11.15184021 31.93873596 C-11.1508634 30.14929519 -11.13750935 28.35982359 -11.11254883 26.57055664 C-11.07818749 23.8331035 -11.09190944 21.09887097 -11.11132812 18.36132812 C-11.10443068 16.61977795 -11.09475921 14.87823608 -11.08203125 13.13671875 C-11.08699112 12.31997177 -11.09195099 11.50322479 -11.09706116 10.66172791 C-11.02492626 7.18000922 -10.79555086 4.82426034 -8.88745117 1.8684082 C-5.75264844 -0.08475298 -3.68110214 -0.06692913 0 0 Z " fill="#41A7E7" transform="translate(74.515625,176.609375)"/>
<path d="M0 0 C1.12696289 0.00999023 2.25392578 0.01998047 3.41503906 0.03027344 C5.55311035 0.08489746 5.55311035 0.08489746 7.734375 0.140625 C12.271875 0.223125 16.809375 0.305625 21.484375 0.390625 C21.484375 16.230625 21.484375 32.070625 21.484375 48.390625 C14.9565625 48.5453125 14.9565625 48.5453125 8.296875 48.703125 C6.93280518 48.74864502 5.56873535 48.79416504 4.16333008 48.84106445 C2.53754028 48.85979614 2.53754028 48.85979614 0.87890625 48.87890625 C-0.77854614 48.91818237 -0.77854614 48.91818237 -2.46948242 48.95825195 C-6.68188244 48.17330124 -8.04969978 46.8762345 -10.515625 43.390625 C-11.20719772 40.41843314 -11.19402083 37.55287505 -11.14453125 34.51171875 C-11.14694321 33.66263443 -11.14935516 32.81355011 -11.15184021 31.93873596 C-11.1508634 30.14929519 -11.13750935 28.35982359 -11.11254883 26.57055664 C-11.07818749 23.8331035 -11.09190944 21.09887097 -11.11132812 18.36132812 C-11.10443068 16.61977795 -11.09475921 14.87823608 -11.08203125 13.13671875 C-11.08699112 12.31997177 -11.09195099 11.50322479 -11.09706116 10.66172791 C-11.02492626 7.18000922 -10.79555086 4.82426034 -8.88745117 1.8684082 C-5.75264844 -0.08475298 -3.68110214 -0.06692913 0 0 Z " fill="#40A7E7" transform="translate(74.515625,255.609375)"/>
<path d="M0 0 C4.186875 -0.061875 8.37375 -0.12375 12.6875 -0.1875 C13.99936279 -0.21481201 15.31122559 -0.24212402 16.6628418 -0.27026367 C17.70609619 -0.27775635 18.74935059 -0.28524902 19.82421875 -0.29296875 C20.88729248 -0.3086792 21.95036621 -0.32438965 23.0456543 -0.34057617 C26.70809996 0.08162957 29.37557231 1.37557231 32 4 C32.13840194 6.91025872 32.21318846 9.79505341 32.23828125 12.70703125 C32.246353 13.58397141 32.25442474 14.46091156 32.26274109 15.36442566 C32.27659913 17.22478244 32.28731356 19.08516482 32.29516602 20.94555664 C32.31236619 23.79036779 32.35623436 26.63401324 32.40039062 29.47851562 C32.41051824 31.2838456 32.41903413 33.08918548 32.42578125 34.89453125 C32.44328934 35.74570023 32.46079742 36.5968692 32.47883606 37.47383118 C32.46519072 41.19257398 32.40811456 43.3586947 30.38061523 46.54467773 C27.24015206 48.4645117 25.15409501 48.45734718 21.484375 48.390625 C20.35741211 48.38063477 19.23044922 48.37064453 18.06933594 48.36035156 C15.93126465 48.30572754 15.93126465 48.30572754 13.75 48.25 C9.2125 48.1675 4.675 48.085 0 48 C0 32.16 0 16.32 0 0 Z " fill="#3CB5F7" transform="translate(416,335)"/>
<path d="M0 0 C4.351875 -0.0825 8.70375 -0.165 13.1875 -0.25 C14.55156982 -0.28641602 15.91563965 -0.32283203 17.32104492 -0.36035156 C18.40490479 -0.3703418 19.48876465 -0.38033203 20.60546875 -0.390625 C22.26292114 -0.4220459 22.26292114 -0.4220459 23.95385742 -0.45410156 C27.89747342 0.13379022 29.41936757 0.94195204 32 4 C32.72828103 7.00274973 32.70107434 9.92179334 32.6640625 13 C32.66884613 13.87269531 32.67362976 14.74539063 32.67855835 15.64453125 C32.68195614 17.48699753 32.67276203 19.3295242 32.65185547 21.171875 C32.62508592 23.99095163 32.65160493 26.80604709 32.68359375 29.625 C32.68028963 31.41667545 32.67388334 33.20834842 32.6640625 35 C32.67418365 35.84175781 32.68430481 36.68351562 32.69473267 37.55078125 C32.61421093 41.57470712 32.51901059 43.38497274 29.8581543 46.53808594 C26.49524679 48.25817564 24.3705843 48.4620016 20.60546875 48.390625 C19.52160889 48.38063477 18.43774902 48.37064453 17.32104492 48.36035156 C15.27494019 48.30572754 15.27494019 48.30572754 13.1875 48.25 C6.6596875 48.12625 6.6596875 48.12625 0 48 C0 32.16 0 16.32 0 0 Z " fill="#3DB5F7" transform="translate(416,256)"/>
<path d="M0 0 C-1.875 3.875 -1.875 3.875 -3 5 C-4.99958364 5.04080783 -7.00045254 5.04254356 -9 5 C-4.16129032 0 -4.16129032 0 0 0 Z " fill="#5CD1F5" transform="translate(239,282)"/>
<path d="M0 0 C0.8971875 0.309375 0.8971875 0.309375 1.8125 0.625 C0.8225 2.11 0.8225 2.11 -0.1875 3.625 C-0.8475 3.625 -1.5075 3.625 -2.1875 3.625 C-2.5175 4.285 -2.8475 4.945 -3.1875 5.625 C-3.5175 4.965 -3.8475 4.305 -4.1875 3.625 C-5.1775 4.285 -6.1675 4.945 -7.1875 5.625 C-5.69046729 2.17030914 -4.27938051 -0.73360809 0 0 Z " fill="#63D8F3" transform="translate(279.1875,160.375)"/>
<path d="M0 0 C-2.55068845 2.35448165 -3.71017358 2.98327924 -7.25 3.1875 C-8.1575 3.125625 -9.065 3.06375 -10 3 C-10.33 2.34 -10.66 1.68 -11 1 C-3.57142857 -1.42857143 -3.57142857 -1.42857143 0 0 Z " fill="#5FD1F4" transform="translate(239,126)"/>
<path d="M0 0 C1.32 0 2.64 0 4 0 C3.67 1.32 3.34 2.64 3 4 C1.68 3.34 0.36 2.68 -1 2 C-0.67 1.34 -0.34 0.68 0 0 Z M-3 3 C-3 6 -3 6 -3 6 Z " fill="#62D8F3" transform="translate(276,321)"/>
<path d="M0 0 C1.32 0 2.64 0 4 0 C3.67 1.32 3.34 2.64 3 4 C1.68 3.34 0.36 2.68 -1 2 C-0.67 1.34 -0.34 0.68 0 0 Z M-3 3 C-3 6 -3 6 -3 6 Z " fill="#62D8F3" transform="translate(276,81)"/>
<path d="M0 0 C2.97 0.495 2.97 0.495 6 1 C4.8125 2.5 4.8125 2.5 3 4 C0.3125 4.1875 0.3125 4.1875 -2 4 C-1.34 3.67 -0.68 3.34 0 3 C0 2.01 0 1.02 0 0 Z " fill="#5AD2F7" transform="translate(328,283)"/>
<path d="M0 0 C-1 3 -1 3 -3 4 C-4.99960012 4.039992 -7.00047242 4.04346799 -9 4 C-6.43425105 1.43425105 -3.68548192 0 0 0 Z " fill="#62D4F4" transform="translate(334,365)"/>
<path d="M0 0 C2.0625 0.4375 2.0625 0.4375 4 1 C2 4 2 4 -0.625 4.6875 C-1.800625 4.8421875 -1.800625 4.8421875 -3 5 C-1.125 1.125 -1.125 1.125 0 0 Z " fill="#6ADDF3" transform="translate(179,161)"/>
</svg>
